<svg width="16" height="16" viewBox="0 0 16 16" fill="none" xmlns="http://www.w3.org/2000/svg">
<path d="M14.6666 8.00004C14.6666 8.36823 14.3682 8.66671 14 8.66671H8.66665V14C8.66665 14.3682 8.36817 14.6667 7.99998 14.6667C7.63179 14.6667 7.33331 14.3682 7.33331 14V8.66671H1.99998C1.63179 8.66671 1.33331 8.36823 1.33331 8.00004C1.33331 7.63185 1.63179 7.33337 1.99998 7.33337H7.33331V2.00004C7.33331 1.63185 7.63179 1.33337 7.99998 1.33337C8.36817 1.33337 8.66665 1.63185 8.66665 2.00004V7.33337H14C14.3682 7.33337 14.6666 7.63185 14.6666 8.00004Z" fill="#957139"/>
</svg>
