<svg width="16" height="16" viewBox="0 0 16 16" fill="none" xmlns="http://www.w3.org/2000/svg">
<path d="M2.07706 9.38876C1.93634 9.62636 2.01488 9.93305 2.25248 10.0738C2.49007 10.2145 2.79676 10.1359 2.93748 9.89835L2.07706 9.38876ZM3.21652 7.4648L2.07706 9.38876L2.93748 9.89835L4.07694 7.97439L3.21652 7.4648Z" fill="#957139"/>
<path d="M3.00012 7C6.00012 9 10.0001 9 13.0001 7" stroke="#957139" stroke-linecap="round"/>
<path d="M4.67518 10.7114C4.63082 10.984 4.81581 11.2409 5.08837 11.2852C5.36092 11.3296 5.61783 11.1446 5.66219 10.872L4.67518 10.7114ZM5.12951 7.9197L4.67518 10.7114L5.66219 10.872L6.11652 8.08033L5.12951 7.9197Z" fill="#957139"/>
<path d="M6.99988 11.0001C6.99986 11.2762 7.2237 11.5001 7.49985 11.5001C7.77599 11.5001 7.99986 11.2763 7.99988 11.0002L6.99988 11.0001ZM7.00004 8.50003L6.99988 11.0001L7.99988 11.0002L8.00004 8.5001L7.00004 8.50003Z" fill="#957139"/>
<path d="M10.0097 11.0981C10.0639 11.3688 10.3273 11.5445 10.5981 11.4903C10.8688 11.4361 11.0445 11.1727 10.9903 10.9019L10.0097 11.0981ZM9.50965 8.59811L10.0097 11.0981L10.9903 10.9019L10.4902 8.40197L9.50965 8.59811Z" fill="#957139"/>
<path d="M12.5902 10.2866C12.7484 10.5129 13.0601 10.5681 13.2865 10.4099C13.5128 10.2517 13.568 9.93999 13.4098 9.71366L12.5902 10.2866ZM11.1922 8.28658L12.5902 10.2866L13.4098 9.71366L12.0118 7.71365L11.1922 8.28658Z" fill="#957139"/>
</svg>
